<svg xmlns="http://www.w3.org/2000/svg" viewBox="0 0 64 64">
  <defs>
    <linearGradient id="bgGrad" x1="0%" y1="0%" x2="100%" y2="100%">
      <stop offset="0%" style="stop-color:#1976d2"/>
      <stop offset="100%" style="stop-color:#1565c0"/>
    </linearGradient>
    <linearGradient id="calGrad" x1="0%" y1="0%" x2="100%" y2="100%">
      <stop offset="0%" style="stop-color:#42a5f5"/>
      <stop offset="100%" style="stop-color:#1e88e5"/>
    </linearGradient>
  </defs>
  <!-- Background circle -->
  <circle cx="32" cy="32" r="30" fill="url(#bgGrad)"/>
  <!-- Server/Environment icon -->
  <rect x="14" y="18" width="20" height="6" rx="2" fill="#fff"/>
  <circle cx="18" cy="21" r="1.5" fill="#4caf50"/>
  <circle cx="23" cy="21" r="1.5" fill="#4caf50"/>
  <rect x="14" y="26" width="20" height="6" rx="2" fill="#fff"/>
  <circle cx="18" cy="29" r="1.5" fill="#ff9800"/>
  <circle cx="23" cy="29" r="1.5" fill="#4caf50"/>
  <rect x="14" y="34" width="20" height="6" rx="2" fill="#fff"/>
  <circle cx="18" cy="37" r="1.5" fill="#4caf50"/>
  <circle cx="23" cy="37" r="1.5" fill="#4caf50"/>
  <!-- Calendar/Booking icon -->
  <rect x="36" y="22" width="16" height="18" rx="2" fill="#fff"/>
  <rect x="36" y="22" width="16" height="5" rx="2" fill="url(#calGrad)"/>
  <rect x="39" y="30" width="3" height="3" rx="0.5" fill="#1976d2"/>
  <rect x="44" y="30" width="3" height="3" rx="0.5" fill="#4caf50"/>
  <rect x="39" y="35" width="3" height="3" rx="0.5" fill="#1976d2"/>
  <rect x="44" y="35" width="3" height="3" rx="0.5" fill="#1976d2"/>
  <!-- Checkmark badge -->
  <circle cx="50" cy="44" r="8" fill="#4caf50"/>
  <path d="M46 44 L49 47 L54 41" stroke="#fff" stroke-width="2" fill="none" stroke-linecap="round" stroke-linejoin="round"/>
</svg>
